:FULLY-SPECIFIED
:FORCE-ALL-JOINTS-BE-3DOF
:DEGREES
816
root -4.33264 14.7277 -40.3258 394.458 -75.6599 333.884
lfemur -72.8518 17.6108 -28.4138
ltibia 75.1185 0 0
lfoot -8.30792 6.9066 0
ltoes -23.8316 0 0
rfemur -29.7225 -5.8472 25.9104
rtibia 70.352 0 0
rfoot -34.3984 -29.4733 0
rtoes -20.7714 0 0
lowerback 18.8828 1.05758 3.99946
upperback 0.836185 2.46948 3.4033
thorax -9.69022 1.02387 0.785209
lowerneck -2.78167 12.8466 3.56005
upperneck -1.05505 17.1378 -9.42337
head 1.35671 8.50686 -3.1077
lclavicle 3.53835e-14 8.89933e-16 0
lhumerus 98.7031 -32.8472 21.1569
lradius 95.2061 0 0
lwrist 24.8303 0 0
lhand -3.52224 21.6131 0
lfingers 7.12502 0 0
lthumb 22.2118 50.3457 0
rclavicle 3.53835e-14 8.89933e-16 0
rhumerus 21.8216 32.8791 -58.297
rradius 64.3526 0 0
rwrist -13.1643 0 0
rhand -15.4032 -43.5064 0
rfingers 7.12502 0 0
rthumb 10.7759 -73.2101 0
817
root -4.21448 14.7427 -40.3377 394.194 -75.5791 334.162
lfemur -72.7707 17.6979 -28.2931
ltibia 75.3252 0 0
lfoot -8.26143 6.94277 0
ltoes -23.6857 0 0
rfemur -29.8036 -5.95085 25.8733
rtibia 70.37 0 0
rfoot -34.377 -29.4259 0
rtoes -20.7738 0 0
lowerback 18.8742 1.05741 3.98369
upperback 0.825683 2.46509 3.38633
thorax -9.69695 1.02228 0.776827
lowerneck -2.77408 12.8434 3.58201
upperneck -1.04435 17.1341 -9.42779
head 1.36122 8.505 -3.113
lclavicle 3.53085e-14 7.37681e-16 0
lhumerus 98.8371 -32.8993 21.0885
lradius 95.3747 0 0
lwrist 24.8504 0 0
lhand -3.62438 21.6835 0
lfingers 7.12502 0 0
lthumb 22.1135 50.4254 0
rclavicle 3.53085e-14 7.37681e-16 0
rhumerus 22.0128 33.0688 -58.1832
rradius 64.3668 0 0
rwrist -13.0513 0 0
rhand -15.4175 -43.4477 0
rfingers 7.12502 0 0
rthumb 10.7621 -73.1521 0
818
root -4.09631 14.7577 -40.3496 394.788 -75.5452 333.566
lfemur -72.5417 17.6181 -27.9052
ltibia 75.0617 0 0
lfoot -8.14649 7.00118 0
ltoes -23.3042 0 0
rfemur -29.7871 -5.92317 25.8049
rtibia 70.3681 0 0
rfoot -34.2723 -29.384 0
rtoes -20.9382 0 0
lowerback 18.8483 1.07424 3.96442
upperback 0.813474 2.4806 3.3578
thorax -9.69488 1.03036 0.75344
lowerneck -2.7575 12.8301 3.61727
upperneck -1.03343 17.1164 -9.40977
head 1.36232 8.49641 -3.11461
lclavicle 3.4658e-14 5.92676e-16 0
lhumerus 98.7047 -32.8975 21.2273
lradius 95.2041 0 0
lwrist 24.8464 0 0
lhand -3.73476 21.8022 0
lfingers 7.12502 0 0
lthumb 22.0074 50.5543 0
rclavicle 3.4658e-14 5.92676e-16 0
rhumerus 21.9531 33.0597 -58.1616
rradius 64.3621 0 0
rwrist -13.0546 0 0
rhand -15.4138 -43.3911 0
rfingers 7.12502 0 0
rthumb 10.7656 -73.0952 0
819
root -3.97815 14.7727 -40.3615 395.824 -75.4955 332.524
lfemur -72.1605 17.4738 -27.258
ltibia 74.5931 0 0
lfoot -7.95575 7.09686 0
ltoes -22.6704 0 0
rfemur -29.7509 -5.86574 25.6923
rtibia 70.363 0 0
rfoot -34.0964 -29.3175 0
rtoes -21.2174 0 0
lowerback 18.8052 1.10288 3.93322
upperback 0.793768 2.50741 3.311
thorax -9.69069 1.04425 0.71452
lowerneck -2.73008 12.8078 3.67503
upperneck -1.01595 17.0866 -9.37869
head 1.36375 8.482 -3.11682
lclavicle 3.35596e-14 3.61394e-16 0
lhumerus 98.4664 -32.8892 21.47
lradius 94.8973 0 0
lwrist 24.8375 0 0
lhand -3.9122 21.997 0
lfingers 7.12502 0 0
lthumb 21.8367 50.7656 0
rclavicle 3.35596e-14 3.61394e-16 0
rhumerus 21.8325 33.0251 -58.1363
rradius 64.3528 0 0
rwrist -13.0716 0 0
rhand -15.4061 -43.3008 0
rfingers 7.12502 0 0
rthumb 10.773 -73.0043 0
820
root -3.85998 14.7878 -40.3734 396.886 -75.3677 331.466
lfemur -71.6229 17.3672 -26.359
ltibia 74.1844 0 0
lfoot -7.68185 7.24484 0
ltoes -21.7673 0 0
rfemur -29.773 -5.88015 25.5228
rtibia 70.3716 0 0
rfoot -33.8614 -29.1963 0
rtoes -21.5644 0 0
lowerback 18.7448 1.13811 3.8817
upperback 0.760778 2.53691 3.23921
thorax -9.69105 1.06011 0.65954
lowerneck -2.68995 12.7776 3.76447
upperneck -0.985536 17.0467 -9.34394
head 1.36923 8.46266 -3.12391
lclavicle 3.2141e-14 -4.96925e-17 0
lhumerus 98.2822 -32.9218 21.7135
lradius 94.6571 0 0
lwrist 24.843 0 0
lhand -4.21549 22.2956 0
lfingers 7.12502 0 0
lthumb 21.545 51.0922 0
rclavicle 3.2141e-14 -4.96925e-17 0
rhumerus 21.841 33.1387 -58.0112
rradius 64.3529 0 0
rwrist -12.9995 0 0
rhand -15.4083 -43.1408 0
rfingers 7.12502 0 0
rthumb 10.7708 -72.8442 0
821
root -3.74182 14.8028 -40.3854 397.559 -75.099 330.823
lfemur -70.9246 17.4007 -25.216
ltibia 74.1007 0 0
lfoot -7.31741 7.46015 0
ltoes -20.5779 0 0
rfemur -29.9312 -6.068 25.2833
rtibia 70.4107 0 0
rfoot -33.5796 -28.9904 0
rtoes -21.9318 0 0
lowerback 18.6673 1.17473 3.80144
upperback 0.708713 2.56048 3.13572
thorax -9.70264 1.07407 0.587971
lowerneck -2.63527 12.7406 3.89475
upperneck -0.935845 16.9987 -9.3149
head 1.38248 8.43929 -3.14017
lclavicle 3.05298e-14 -7.34107e-16 0
lhumerus 98.3126 -33.043 21.8546
lradius 94.6863 0 0
lwrist 24.8825 0 0
lhand -4.70348 22.7258 0
lfingers 7.12502 0 0
lthumb 21.0756 51.5672 0
rclavicle 3.05298e-14 -7.34107e-16 0
rhumerus 22.1687 33.5739 -57.6905
rradius 64.3766 0 0
rwrist -12.7356 0 0
rhand -15.4345 -42.8755 0
rfingers 7.12502 0 0
rthumb 10.7456 -72.5799 0
